  0
SECTION
  2
HEADER
  9
$ACADVER
  1
AC1009
  9
$INSBASE
 10
0.0
 20
0.0
 30
0.0
  9
$EXTMIN
 10
0.0
 20
0.0
 30
0.0
  9
$EXTMAX
 10
0.0
 20
0.0
 30
0.0
  0
ENDSEC
  0
SECTION
  2
TABLES
  0
TABLE
  2
VPORT
 70
0
  0
ENDTAB
  0
TABLE
  2
LTYPE
 70
1
  0
LTYPE
  2
CONTINUOUS
 70
0
  3
Solid line
 72
65
 73
0
 40
0.0
  0
ENDTAB
  0
TABLE
  2
LAYER
 70
1
  0
LAYER
  2
0
 70
64
 62
7
  6
continuous
  0
ENDTAB
  0
TABLE
  2
STYLE
 70
1
  0
STYLE
  2
STANDARD
 70
0
 40
0
 41
1.0
 50
0.0
 71
0
 42
1
 3
ARIAL.TTF
 4

  0
ENDTAB
  0
TABLE
  2
VIEW
 70
0
  0
ENDTAB
  0
ENDSEC
  0
SECTION
  2
BLOCKS
  0
BLOCK
  8
0
  2
PART__MIRRORING007
 70
0
 10
0.0
 20
0.0
 30
0.0
  3
PART__MIRRORING007
  0
LINE
  8
0
 62
0
 10
-55.7356938853
 20
-66.0711226369
 30
0.0
 11
-50.4526360342
 21
-63.4161775171
 31
0.0
  0
ARC
  8
0
 62
0
 10
-117.806825135
 20
70.6114808619
 30
0.0
 40
150.0
 50
-63.3186661338
 51
-51.0
  0
ARC
  8
0
 62
0
 10
-49.0003017086
 20
-79.4739019094
 30
0.0
 40
15.0
 50
116.681219583
 51
165.165100784
  0
LINE
  8
0
 62
0
 10
-23.4087664775
 20
-45.9604133566
 30
0.0
 11
-11.4727726019
 21
-36.2948360958
 31
0.0
  0
ARC
  8
0
 62
0
 10
-78.0003300902
 20
-71.7928633163
 30
0.0
 40
15.0
 50
-30.5876003519
 51
-14.8349005333
  0
ARC
  8
0
 62
0
 10
-2.03296702409
 20
-47.9520261019
 30
0.0
 40
15.0000002728
 50
90.1275314533
 51
128.999997741
  0
ARC
  8
0
 62
0
 10
-67.6701040992
 20
-77.8991249367
 30
0.0
 40
3.0
 50
-108.318205371
 51
-30.5875981124
  0
LINE
  8
0
 62
0
 10
-2.06635465352
 20
-32.9520629869
 30
0.0
 11
-0.014878615944
 21
-32.9474966604
 31
0.0
  0
LINE
  8
0
 62
0
 10
-71.6280239665
 20
-79.7489103356
 30
0.0
 11
-68.6129864414
 21
-80.7471019185
 31
0.0
  0
LINE
  8
0
 62
0
 10
-0.014878615944
 20
-32.9474966604
 30
0.0
 11
-0.0371378570744
 21
-22.9475208629
 31
0.0
  0
ARC
  8
0
 62
0
 10
-72.5709060761
 20
-82.5968873943
 30
0.0
 40
3.0
 50
71.6817993072
 51
161.681204168
  0
LINE
  8
0
 62
0
 10
-0.0371378570744
 20
-22.9475208629
 30
0.0
 11
-7.38159919366
 21
-22.963869504
 31
0.0
  0
LINE
  8
0
 62
0
 10
-77.4209109735
 20
-87.7008684468
 30
0.0
 11
-75.4188733409
 21
-81.6539757025
 31
0.0
  0
ARC
  8
0
 62
0
 10
-7.35934077404
 20
-32.963844914
 30
0.0
 40
10.0000001819
 50
90.1275314533
 51
128.999997909
  0
ARC
  8
0
 62
0
 10
-81.2181972346
 20
-86.443642512
 30
0.0
 40
4.0
 50
-102.387630225
 51
-18.3189519325
  0
LINE
  8
0
 62
0
 10
-13.6525445153
 20
-25.1923849284
 30
0.0
 11
-29.7017262196
 21
-38.1887560183
 31
0.0
  0
ARC
  8
0
 62
0
 10
-78.0003300902
 20
-71.7928633163
 30
0.0
 40
19.0
 50
-114.249934008
 51
-102.387630741
  0
ARC
  8
0
 62
0
 10
-124.099784877
 20
78.3831382002
 30
0.0
 40
150.0
 50
-63.3189033911
 51
-51.0
  0
ARC
  8
0
 62
0
 10
-84.1610971319
 20
-85.4693010637
 30
0.0
 40
4.0
 50
161.681046019
 51
-114.249933933
  0
LINE
  8
0
 62
0
 10
-60.1226092229
 20
-57.3415852299
 30
0.0
 11
-56.7461507749
 21
-55.6447990861
 31
0.0
  0
LINE
  8
0
 62
0
 10
-85.9563457155
 20
-78.1651822489
 30
0.0
 11
-87.9583833481
 21
-84.2120749932
 31
0.0
  0
ARC
  8
0
 62
0
 10
-66.8580013996
 20
-43.9388059575
 30
0.0
 40
15.0
 50
-111.802661384
 51
-63.3187804169
  0
ARC
  8
0
 62
0
 10
-88.8043104617
 20
-77.22226295
 30
0.0
 40
3.0
 50
-18.3189488726
 51
71.6813925493
  0
ARC
  8
0
 62
0
 10
-78.0003300902
 20
-71.7928633163
 30
0.0
 40
15.0
 50
68.1973394652
 51
83.9500397706
  0
LINE
  8
0
 62
0
 10
-93.9083126367
 20
-72.3722904687
 30
0.0
 11
-87.8614081336
 21
-74.374292585
 31
0.0
  0
ARC
  8
0
 62
0
 10
-76.7355827481
 20
-59.8596988508
 30
0.0
 40
3.0
 50
83.950038541
 51
161.680594065
  0
ARC
  8
0
 62
0
 10
-92.6511094002
 20
-68.5749966925
 30
0.0
 40
4.0
 50
167.6123687
 51
-108.318609447
  0
LINE
  8
0
 62
0
 10
-79.5835399724
 20
-58.916756833
 30
0.0
 11
-80.5817968962
 21
-61.9317813051
 31
0.0
  0
ARC
  8
0
 62
0
 10
-78.0003300902
 20
-71.7928633163
 30
0.0
 40
19.0
 50
155.750067779
 51
167.61237064
  0
ARC
  8
0
 62
0
 10
-83.4297541043
 20
-60.9888392383
 30
0.0
 40
3.0
 50
-108.318643172
 51
-18.3194069189
  0
ARC
  8
0
 62
0
 10
-91.6767680565
 20
-65.6320967606
 30
0.0
 40
4.0
 50
71.6813442509
 51
155.75006692
  0
LINE
  8
0
 62
0
 10
-84.372658208
 20
-63.8368090154
 30
0.0
 11
-90.4195617514
 21
-61.8348040005
 31
0.0
  0
CIRCLE
  8
0
 62
0
 10
-78.0003300902
 20
-71.7928633163
 30
0.0
 40
3.5
  0
ARC
  8
0
 62
0
 10
-9.51934256582
 20
-28.4544769468
 30
0.0
 40
0.999999938319
 50
115.59458344
 51
-142.301007117
  0
ARC
  8
0
 62
0
 10
-7.35934128981
 20
-32.9638450827
 30
0.0
 40
6.00000058809
 50
90.1275269856
 51
115.594568011
  0
LINE
  8
0
 62
0
 10
-4.07970526139
 20
-26.9565297934
 30
0.0
 11
-7.3726958748
 21
-26.9638593567
 31
0.0
  0
ARC
  8
0
 62
0
 10
-4.07736826188
 20
-28.0065270191
 30
0.0
 40
1.04999982653
 50
-84.1476654133
 51
90.1275241344
  0
ARC
  8
0
 62
0
 10
-2.03296694239
 20
-47.9520229159
 30
0.0
 40
18.9999972638
 50
95.8523454148
 51
110.448729517
  0
ARC
  8
0
 62
0
 10
-9.02034796959
 20
-29.2123211541
 30
0.0
 40
1.0000006297
 50
-150.974033011
 51
-69.5512490108
  0
ARC
  8
0
 62
0
 10
-14.266751154
 20
-32.1235540225
 30
0.0
 40
5.00000130255
 50
29.0259170934
 51
37.6989570067
  0
ARC
  8
0
 62
0
 10
-74.9515847639
 20
-62.5844350066
 30
0.0
 40
1.55
 50
-60.9610903968
 51
-155.676470437
  0
ARC
  8
0
 62
0
 10
-75.6116224119
 20
-64.5780122695
 30
0.0
 40
1.55
 50
119.038909603
 51
24.3235295631
  0
ARC
  8
0
 62
0
 10
-85.215181137
 20
-69.404155638
 30
0.0
 40
1.55
 50
-150.961090397
 51
114.323529563
  0
ARC
  8
0
 62
0
 10
-87.2087583999
 20
-68.7441179901
 30
0.0
 40
1.55
 50
29.0389096032
 51
-65.6764704369
  0
ARC
  8
0
 62
0
 10
-81.0490754164
 20
-81.0012916261
 30
0.0
 40
1.55
 50
119.038909603
 51
24.3235295631
  0
ARC
  8
0
 62
0
 10
-80.3890377685
 20
-79.0077143632
 30
0.0
 40
1.55
 50
-60.9610903968
 51
-155.676470437
  0
CIRCLE
  8
0
 62
0
 10
-23.5925
 20
-39.6754
 30
0.0
 40
1.475
  0
CIRCLE
  8
0
 62
0
 10
-14.2667484625
 20
-32.1235553074
 30
0.0
 40
1.475
  0
ENDBLK
  0
ENDSEC
  0
SECTION
  2
ENTITIES
  0
INSERT
  2
PART__MIRRORING007
  8
0
 62
0
 10
0.0
 20
0.0
 30
0.0
  0
ENDSEC
  0
EOF
