  0
SECTION
  2
HEADER
  9
$ACADVER
  1
AC1009
  9
$INSBASE
 10
0.0
 20
0.0
 30
0.0
  9
$EXTMIN
 10
0.0
 20
0.0
 30
0.0
  9
$EXTMAX
 10
0.0
 20
0.0
 30
0.0
  0
ENDSEC
  0
SECTION
  2
TABLES
  0
TABLE
  2
VPORT
 70
0
  0
ENDTAB
  0
TABLE
  2
LTYPE
 70
1
  0
LTYPE
  2
CONTINUOUS
 70
0
  3
Solid line
 72
65
 73
0
 40
0.0
  0
ENDTAB
  0
TABLE
  2
LAYER
 70
1
  0
LAYER
  2
0
 70
64
 62
7
  6
continuous
  0
ENDTAB
  0
TABLE
  2
STYLE
 70
1
  0
STYLE
  2
STANDARD
 70
0
 40
0
 41
1.0
 50
0.0
 71
0
 42
1
 3
ARIAL.TTF
 4

  0
ENDTAB
  0
TABLE
  2
VIEW
 70
0
  0
ENDTAB
  0
ENDSEC
  0
SECTION
  2
BLOCKS
  0
BLOCK
  8
0
  2
PAD009
 70
0
 10
0.0
 20
0.0
 30
0.0
  3
PAD009
  0
ARC
  8
0
 62
0
 10
-65.9377245793
 20
110.963311074
 30
0.0
 40
4.0
 50
1.87735070478
 51
85.9460258912
  0
LINE
  8
0
 62
0
 10
-61.9398716023
 20
111.094351428
 30
0.0
 11
-61.7311998257
 21
104.728072273
 31
0.0
  0
ARC
  8
0
 62
0
 10
-58.7328097516
 20
104.826342123
 30
0.0
 40
3.0
 50
-178.122848321
 51
-88.1233899613
  0
LINE
  8
0
 62
0
 10
-58.6345682469
 20
101.82795112
 30
0.0
 11
-55.4602964055
 21
101.931955848
 31
0.0
  0
ARC
  8
0
 62
0
 10
-55.3620540007
 20
98.9335648747
 30
0.0
 40
3.0
 50
14.1459949878
 51
91.8766272387
  0
ARC
  8
0
 62
0
 10
-66.9981676351
 20
96.0008426774
 30
0.0
 40
15.0
 50
-1.34565477229
 51
14.1459952202
  0
ARC
  8
0
 62
0
 10
-37.006441205
 20
95.2963245843
 30
0.0
 40
15.0
 50
178.654346471
 51
-133.122825217
  0
LINE
  8
0
 62
0
 10
-47.2599101748
 20
84.3479742936
 30
0.0
 11
-28.2173576593
 21
66.5140337178
 31
0.0
  0
LINE
  8
0
 62
0
 10
-28.2173576593
 20
66.5140337178
 30
0.0
 11
-11.4727726019
 21
52.9545360958
 31
0.0
  0
ARC
  8
0
 62
0
 10
-2.03296702408
 20
64.6117261019
 30
0.0
 40
15.0000002728
 50
-128.999997741
 51
-90.1275314533
  0
LINE
  8
0
 62
0
 10
-2.06635465352
 20
49.6117629869
 30
0.0
 11
-0.0148786159484
 21
49.6071966604
 31
0.0
  0
LINE
  8
0
 62
0
 10
-0.0148786159484
 20
49.6071966604
 30
0.0
 11
-0.0371378570854
 21
39.6072208629
 31
0.0
  0
LINE
  8
0
 62
0
 10
-0.0371378570854
 20
39.6072208629
 30
0.0
 11
-7.38159919367
 21
39.623569504
 31
0.0
  0
ARC
  8
0
 62
0
 10
-7.35934077404
 20
49.623544914
 30
0.0
 40
10.0000001819
 50
-128.999997909
 51
-90.1275314533
  0
LINE
  8
0
 62
0
 10
-13.6525445153
 20
41.8520849284
 30
0.0
 11
-34.5105615698
 21
58.7425741032
 31
0.0
  0
LINE
  8
0
 62
0
 10
-54.0778678206
 20
77.0679611787
 30
0.0
 11
-34.5105615698
 21
58.7425741032
 31
0.0
  0
ARC
  8
0
 62
0
 10
-64.3313367904
 20
66.1196108881
 30
0.0
 40
15.0
 50
46.8771747834
 51
95.1000041854
  0
ARC
  8
0
 62
0
 10
-66.9981676351
 20
96.0008426774
 30
0.0
 40
15.0
 50
-100.391646205
 51
-84.8999967505
  0
ARC
  8
0
 62
0
 10
-69.1626763823
 20
84.1976692955
 30
0.0
 40
3.0
 50
-178.122181698
 51
-100.391648181
  0
LINE
  8
0
 62
0
 10
-72.1610653129
 20
84.0993645602
 30
0.0
 11
-72.2651365813
 21
87.2736477616
 31
0.0
  0
ARC
  8
0
 62
0
 10
-75.2635255186
 20
87.1753432321
 30
0.0
 40
3.0
 50
1.87781437136
 51
91.8770506894
  0
LINE
  8
0
 62
0
 10
-75.3617900834
 20
90.1737334794
 30
0.0
 11
-81.7280703418
 21
89.9650953809
 31
0.0
  0
ARC
  8
0
 62
0
 10
-81.8590891952
 20
93.9629490625
 30
0.0
 40
4.0
 50
-172.191669312
 51
-88.1229574271
  0
ARC
  8
0
 62
0
 10
-66.9981676351
 20
96.0008426774
 30
0.0
 40
19.0
 50
175.946021659
 51
-172.191671566
  0
ARC
  8
0
 62
0
 10
-81.9606359867
 20
97.0612863707
 30
0.0
 40
4.0
 50
91.8770060825
 51
175.946021378
  0
LINE
  8
0
 62
0
 10
-82.0916522939
 20
101.059140136
 30
0.0
 11
-75.7253718851
 21
101.267773647
 31
0.0
  0
ARC
  8
0
 62
0
 10
-75.8236328044
 20
104.266164014
 30
0.0
 40
3.0
 50
-88.1230189725
 51
1.87735271721
  0
LINE
  8
0
 62
0
 10
-72.8252430751
 20
104.364444384
 30
0.0
 11
-73.0339148517
 21
110.730723539
 31
0.0
  0
ARC
  8
0
 62
0
 10
-69.0360618831
 20
110.861764151
 30
0.0
 40
4.0
 50
97.8083301139
 51
-178.122645595
  0
ARC
  8
0
 62
0
 10
-66.9981676351
 20
96.0008426774
 30
0.0
 40
19.0
 50
85.9460245361
 51
97.8083302405
  0
CIRCLE
  8
0
 62
0
 10
-66.9981676351
 20
96.0008426774
 30
0.0
 40
3.5
  0
ARC
  8
0
 62
0
 10
-9.51934256583
 20
45.1141769468
 30
0.0
 40
0.999999938319
 50
142.301007117
 51
-115.59458344
  0
ARC
  8
0
 62
0
 10
-7.35934128982
 20
49.6235450827
 30
0.0
 40
6.00000058808
 50
-115.594568011
 51
-90.1275269856
  0
LINE
  8
0
 62
0
 10
-4.0797052614
 20
43.6162297934
 30
0.0
 11
-7.37269587481
 21
43.6235593567
 31
0.0
  0
ARC
  8
0
 62
0
 10
-4.07736826189
 20
44.6662270191
 30
0.0
 40
1.04999982653
 50
-90.1275241345
 51
84.1476654133
  0
ARC
  8
0
 62
0
 10
-2.03296694238
 20
64.6117229159
 30
0.0
 40
18.9999972638
 50
-110.448729517
 51
-95.8523454148
  0
ARC
  8
0
 62
0
 10
-9.0203479696
 20
45.8720211541
 30
0.0
 40
1.0000006297
 50
69.5512490107
 51
150.974033011
  0
ARC
  8
0
 62
0
 10
-14.266751154
 20
48.7832540225
 30
0.0
 40
5.00000130255
 50
-37.6989570068
 51
-29.0259170935
  0
ARC
  8
0
 62
0
 10
-66.6804245449
 20
86.3060482325
 30
0.0
 40
1.55
 50
139.234864803
 51
44.5194847634
  0
ARC
  8
0
 62
0
 10
-66.7492142861
 20
88.4049212567
 30
0.0
 40
1.55
 50
-40.7651351965
 51
-135.480515237
  0
ARC
  8
0
 62
0
 10
-67.3159107253
 20
105.695637122
 30
0.0
 40
1.55
 50
-40.7651351965
 51
-135.480515237
  0
ARC
  8
0
 62
0
 10
-67.2471209841
 20
103.596764098
 30
0.0
 40
1.55
 50
139.234864803
 51
44.5194847634
  0
ARC
  8
0
 62
0
 10
-74.5940890558
 20
95.7518893284
 30
0.0
 40
1.55
 50
-130.765135197
 51
134.519484763
  0
ARC
  8
0
 62
0
 10
-76.69296208
 20
95.6830995872
 30
0.0
 40
1.55
 50
49.2348648035
 51
-45.4805152366
  0
CIRCLE
  8
0
 62
0
 10
-14.2667484625
 20
48.7832553074
 30
0.0
 40
1.475
  0
CIRCLE
  8
0
 62
0
 10
-23.5925
 20
56.3351
 30
0.0
 40
1.475
  0
ENDBLK
  0
ENDSEC
  0
SECTION
  2
ENTITIES
  0
INSERT
  2
PAD009
  8
0
 62
0
 10
0.0
 20
0.0
 30
0.0
  0
ENDSEC
  0
EOF
