  0
SECTION
  2
HEADER
  9
$ACADVER
  1
AC1009
  9
$INSBASE
 10
0.0
 20
0.0
 30
0.0
  9
$EXTMIN
 10
0.0
 20
0.0
 30
0.0
  9
$EXTMAX
 10
0.0
 20
0.0
 30
0.0
  0
ENDSEC
  0
SECTION
  2
TABLES
  0
TABLE
  2
VPORT
 70
0
  0
ENDTAB
  0
TABLE
  2
LTYPE
 70
1
  0
LTYPE
  2
CONTINUOUS
 70
0
  3
Solid line
 72
65
 73
0
 40
0.0
  0
ENDTAB
  0
TABLE
  2
LAYER
 70
1
  0
LAYER
  2
0
 70
64
 62
7
  6
continuous
  0
ENDTAB
  0
TABLE
  2
STYLE
 70
1
  0
STYLE
  2
STANDARD
 70
0
 40
0
 41
1.0
 50
0.0
 71
0
 42
1
 3
ARIAL.TTF
 4

  0
ENDTAB
  0
TABLE
  2
VIEW
 70
0
  0
ENDTAB
  0
ENDSEC
  0
SECTION
  2
BLOCKS
  0
BLOCK
  8
0
  2
FUSION001
 70
0
 10
0.0
 20
0.0
 30
0.0
  3
FUSION001
  0
LINE
  8
0
 62
0
 10
58.5892566719
 20
98.9172261053
 30
0.0
 11
80.262108042
 21
96.6070949332
 31
0.0
  0
ARC
  8
0
 62
0
 10
58.3772754731
 20
96.9284918417
 30
0.0
 40
2.0
 50
83.9157577784
 51
128.915757778
  0
ARC
  8
0
 62
0
 10
79.8381467043
 20
92.6296363496
 30
0.0
 40
3.99999
 50
-0.903997843469
 51
83.9157577784
  0
LINE
  8
0
 62
0
 10
57.1209213325
 20
98.4846326686
 30
0.0
 11
56.09400238
 21
97.6555471156
 31
0.0
  0
LINE
  8
0
 62
0
 10
83.8376388418
 20
92.5665281706
 30
0.0
 11
83.8376384602
 21
92.5665039908
 31
0.0
  0
ARC
  8
0
 62
0
 10
54.8376482393
 20
99.2116879426
 30
0.0
 40
2.0
 50
-90.2152386527
 51
-51.0842422216
  0
ARC
  8
0
 62
0
 10
79.8381463227
 20
92.6296121698
 30
0.0
 40
3.99999
 50
-96.2
 51
-0.903997843469
  0
LINE
  8
0
 62
0
 10
0.0
 20
97.4176791792
 30
0.0
 11
54.8301350107
 21
97.2117020548
 31
0.0
  0
LINE
  8
0
 62
0
 10
79.4061499799
 20
88.6530182554
 30
0.0
 11
56.8810166324
 21
91.1000308087
 31
0.0
  0
LINE
  8
0
 62
0
 10
0.0
 20
93.4176791792
 30
0.0
 11
0.0
 21
97.4176791792
 31
0.0
  0
ARC
  8
0
 62
0
 10
57.0970153438
 20
93.0883327367
 30
0.0
 40
2.0
 50
-141.2
 51
-96.2
  0
LINE
  8
0
 62
0
 10
53.3076938346
 20
93.4176791792
 30
0.0
 11
0.0
 21
93.4176791792
 31
0.0
  0
LINE
  8
0
 62
0
 10
55.5383394139
 20
91.835125114
 30
0.0
 11
54.8663697645
 21
92.6708868019
 31
0.0
  0
ARC
  8
0
 62
0
 10
53.3076938346
 20
91.4176791792
 30
0.0
 40
2.0
 50
38.8
 51
90.0
  0
ARC
  8
0
 62
0
 10
62.1153283528
 20
94.4453326618
 30
0.0
 40
1.54999976906
 50
-138.64230073
 51
126.64230073
  0
ARC
  8
0
 62
0
 10
60.0268327107
 20
94.6648423992
 30
0.0
 40
1.55
 50
41.35769
 51
-53.35769
  0
ARC
  8
0
 62
0
 10
79.3205581067
 20
92.636990146
 30
0.0
 40
1.55
 50
-138.64231
 51
126.64231
  0
ARC
  8
0
 62
0
 10
77.2320610582
 20
92.8565000311
 30
0.0
 40
1.55000072708
 50
41.3576608154
 51
-53.3576608153
  0
LINE
  8
0
 62
0
 10
-58.5892566719
 20
98.9172261053
 30
0.0
 11
-80.262108042
 21
96.6070949332
 31
0.0
  0
ARC
  8
0
 62
0
 10
-58.3772754731
 20
96.9284918417
 30
0.0
 40
2.0
 50
51.0842422216
 51
96.0842422216
  0
ARC
  8
0
 62
0
 10
-79.8381467043
 20
92.6296363496
 30
0.0
 40
3.99999
 50
96.0842422216
 51
-179.096002157
  0
LINE
  8
0
 62
0
 10
-57.1209213325
 20
98.4846326686
 30
0.0
 11
-56.09400238
 21
97.6555471156
 31
0.0
  0
LINE
  8
0
 62
0
 10
-83.8376388418
 20
92.5665281706
 30
0.0
 11
-83.8376384602
 21
92.5665039908
 31
0.0
  0
ARC
  8
0
 62
0
 10
-54.8376482393
 20
99.2116879426
 30
0.0
 40
2.0
 50
-128.915757778
 51
-89.7847613473
  0
ARC
  8
0
 62
0
 10
-79.8381463227
 20
92.6296121698
 30
0.0
 40
3.99999
 50
-179.096002157
 51
-83.8
  0
LINE
  8
0
 62
0
 10
0.0
 20
97.4176791792
 30
0.0
 11
-54.8301350107
 21
97.2117020548
 31
0.0
  0
LINE
  8
0
 62
0
 10
-79.4061499799
 20
88.6530182554
 30
0.0
 11
-56.8810166324
 21
91.1000308087
 31
0.0
  0
ARC
  8
0
 62
0
 10
-57.0970153438
 20
93.0883327367
 30
0.0
 40
2.0
 50
-83.8
 51
-38.8
  0
LINE
  8
0
 62
0
 10
-53.3076938346
 20
93.4176791792
 30
0.0
 11
0.0
 21
93.4176791792
 31
0.0
  0
LINE
  8
0
 62
0
 10
-55.5383394139
 20
91.835125114
 30
0.0
 11
-54.8663697645
 21
92.6708868019
 31
0.0
  0
ARC
  8
0
 62
0
 10
-53.3076938346
 20
91.4176791792
 30
0.0
 40
2.0
 50
90.0
 51
141.2
  0
ARC
  8
0
 62
0
 10
-62.1153283528
 20
94.4453326618
 30
0.0
 40
1.54999976906
 50
53.3576992697
 51
-41.3576992697
  0
ARC
  8
0
 62
0
 10
-60.0268327107
 20
94.6648423992
 30
0.0
 40
1.55
 50
-126.64231
 51
138.64231
  0
ARC
  8
0
 62
0
 10
-79.3205581067
 20
92.636990146
 30
0.0
 40
1.55
 50
53.3576899999
 51
-41.3576900001
  0
ARC
  8
0
 62
0
 10
-77.2320610582
 20
92.8565000311
 30
0.0
 40
1.55000072708
 50
-126.642339185
 51
138.642339185
  0
ENDBLK
  0
ENDSEC
  0
SECTION
  2
ENTITIES
  0
INSERT
  2
FUSION001
  8
0
 62
0
 10
0.0
 20
0.0
 30
0.0
  0
ENDSEC
  0
EOF
